<?xml version="1.0" encoding="UTF-8" standalone="no"?>
<svg
   xmlns:dc="http://purl.org/dc/elements/1.1/"
   xmlns:cc="http://creativecommons.org/ns#"
   xmlns:rdf="http://www.w3.org/1999/02/22-rdf-syntax-ns#"
   xmlns:svg="http://www.w3.org/2000/svg"
   xmlns="http://www.w3.org/2000/svg"
   xmlns:sodipodi="http://sodipodi.sourceforge.net/DTD/sodipodi-0.dtd"
   xmlns:inkscape="http://www.inkscape.org/namespaces/inkscape"
   inkscape:export-ydpi="96"
   inkscape:export-xdpi="96"
   inkscape:export-filename="C:\Users\Adam\Documents\Projects\HH Projects\au_skeld\src\materials\hallway_floor.png"
   width="512"
   height="512"
   viewBox="0 0 135.46667 135.46667"
   version="1.1"
   id="svg8"
   inkscape:version="1.0 (4035a4fb49, 2020-05-01)"
   sodipodi:docname="hallway_floor.svg">
  <defs
     id="defs2" />
  <sodipodi:namedview
     id="base"
     pagecolor="#ffffff"
     bordercolor="#666666"
     borderopacity="1.0"
     inkscape:pageopacity="0.0"
     inkscape:pageshadow="2"
     inkscape:zoom="1.4"
     inkscape:cx="130.71298"
     inkscape:cy="265.21727"
     inkscape:document-units="mm"
     inkscape:current-layer="layer1"
     inkscape:document-rotation="0"
     showgrid="true"
     units="px"
     inkscape:pagecheckerboard="false"
     inkscape:window-width="1920"
     inkscape:window-height="1017"
     inkscape:window-x="1912"
     inkscape:window-y="-8"
     inkscape:window-maximized="1">
    <inkscape:grid
       type="xygrid"
       id="grid833"
       empspacing="4" />
  </sodipodi:namedview>
  <metadata
     id="metadata5">
    <rdf:RDF>
      <cc:Work
         rdf:about="">
        <dc:format>image/svg+xml</dc:format>
        <dc:type
           rdf:resource="http://purl.org/dc/dcmitype/StillImage" />
        <dc:title></dc:title>
      </cc:Work>
    </rdf:RDF>
  </metadata>
  <g
     style="display:inline"
     inkscape:label="Layer 1"
     inkscape:groupmode="layer"
     id="layer1">
    <rect
       y="0"
       x="14.816667"
       height="135.46666"
       width="105.83334"
       id="rect1033"
       style="fill:#739097;fill-opacity:1;stroke:none;stroke-width:1.05833;stroke-linecap:round;stroke-miterlimit:4;stroke-dasharray:none;stroke-opacity:1" />
    <path
       id="path832"
       d="m 17.4625,91.545832 8.466666,8.466668 H 109.5375 l 8.46667,-8.466668 V 43.920833 L 109.5375,35.454166 H 25.929166 L 17.4625,43.920833 Z"
       style="fill:#84a2ad;fill-opacity:1;stroke:#5a717b;stroke-width:1.05833;stroke-linecap:butt;stroke-linejoin:miter;stroke-miterlimit:4;stroke-dasharray:none;stroke-opacity:1" />
    <path
       sodipodi:nodetypes="ccccccccc"
       id="path834"
       d="m 23.8125,41.274999 v 1.058334 l 1.058333,0.529166 h 85.724997 l 1.05834,-0.529166 V 41.275 l -1.05834,-0.529167 H 24.870833 Z"
       style="fill:none;stroke:#73929c;stroke-width:1.05833;stroke-linecap:butt;stroke-linejoin:miter;stroke-miterlimit:4;stroke-dasharray:none;stroke-opacity:1" />
    <path
       style="fill:none;stroke:#73929c;stroke-width:1.05833;stroke-linecap:butt;stroke-linejoin:miter;stroke-miterlimit:4;stroke-dasharray:none;stroke-opacity:1"
       d="m 21.695834,48.683333 v 1.058334 l 1.058333,0.529166 89.958323,-1e-6 1.05834,-0.529166 v -1.058333 l -1.05834,-0.529167 -89.958323,1e-6 z"
       id="path834-3"
       sodipodi:nodetypes="ccccccccc" />
    <path
       sodipodi:nodetypes="ccccccccc"
       id="path834-3-8"
       d="M 21.695834,56.091666 V 57.15 l 1.058333,0.529166 89.958323,-1e-6 1.05834,-0.529166 v -1.058333 l -1.05834,-0.529167 -89.958323,10e-7 z"
       style="fill:none;stroke:#73929c;stroke-width:1.05833;stroke-linecap:butt;stroke-linejoin:miter;stroke-miterlimit:4;stroke-dasharray:none;stroke-opacity:1" />
    <path
       sodipodi:nodetypes="ccccccccc"
       id="path834-3-7"
       d="m 21.695834,63.5 v 1.058334 l 1.058333,0.529166 89.958323,-1e-6 1.05834,-0.529166 V 63.5 l -1.05834,-0.529167 -89.958323,1e-6 z"
       style="fill:none;stroke:#73929c;stroke-width:1.05833;stroke-linecap:butt;stroke-linejoin:miter;stroke-miterlimit:4;stroke-dasharray:none;stroke-opacity:1" />
    <path
       sodipodi:nodetypes="ccccccccc"
       id="path834-3-9"
       d="m 21.695837,70.908333 v 1.058334 l 1.058333,0.529166 89.95833,-1e-6 1.05833,-0.529166 v -1.058333 l -1.05833,-0.529167 -89.95833,10e-7 z"
       style="fill:none;stroke:#73929c;stroke-width:1.05833;stroke-linecap:butt;stroke-linejoin:miter;stroke-miterlimit:4;stroke-dasharray:none;stroke-opacity:1" />
    <path
       sodipodi:nodetypes="ccccccccc"
       id="path834-3-2"
       d="m 21.695837,78.316667 v 1.058334 l 1.058333,0.529166 89.95832,-10e-7 1.05834,-0.529166 v -1.058333 l -1.05834,-0.529167 -89.95832,1e-6 z"
       style="fill:none;stroke:#73929c;stroke-width:1.05833;stroke-linecap:butt;stroke-linejoin:miter;stroke-miterlimit:4;stroke-dasharray:none;stroke-opacity:1" />
    <path
       sodipodi:nodetypes="ccccccccc"
       id="path834-3-86"
       d="m 21.695843,85.725 v 1.058334 l 1.058333,0.529166 89.958324,-10e-7 1.05833,-0.529166 V 85.725 l -1.05833,-0.529167 -89.958324,1e-6 z"
       style="fill:none;stroke:#73929c;stroke-width:1.05833;stroke-linecap:butt;stroke-linejoin:miter;stroke-miterlimit:4;stroke-dasharray:none;stroke-opacity:1" />
    <path
       style="fill:none;stroke:#73929c;stroke-width:1.05833;stroke-linecap:butt;stroke-linejoin:miter;stroke-miterlimit:4;stroke-dasharray:none;stroke-opacity:1"
       d="m 23.812494,93.133333 v 1.058334 l 1.058333,0.529166 h 85.725003 l 1.05834,-0.529166 v -1.058333 l -1.05834,-0.529167 H 24.870827 Z"
       id="path834-0"
       sodipodi:nodetypes="cccccc" />
    <path
       sodipodi:nodetypes="cccccc"
       style="fill:#84a2ad;fill-opacity:1;stroke:#5a717b;stroke-width:1.05833;stroke-linecap:butt;stroke-linejoin:miter;stroke-miterlimit:4;stroke-dasharray:none;stroke-opacity:1"
       d="m 17.4625,0 1e-6,23.812501 8.466666,8.466666 H 109.5375 l 8.46667,-8.466666 V 0"
       id="path832-5" />
    <path
       style="fill:none;stroke:#73929c;stroke-width:1.05833;stroke-linecap:butt;stroke-linejoin:miter;stroke-miterlimit:4;stroke-dasharray:none;stroke-opacity:1"
       d="m 23.8125,25.4 v 1.058334 l 1.058333,0.529166 h 85.724997 l 1.05834,-0.529166 v -1.058333 l -1.05834,-0.529167 H 24.870833 Z"
       id="path834-4"
       sodipodi:nodetypes="cccccc" />
    <path
       sodipodi:nodetypes="ccccccccc"
       id="path834-3-3"
       d="m 21.695834,3.1750003 v 1.058334 l 1.058333,0.529166 89.958333,-1e-6 1.05833,-0.529166 v -1.058333 l -1.05833,-0.529167 -89.958333,1e-6 z"
       style="fill:none;stroke:#73929c;stroke-width:1.05833;stroke-linecap:butt;stroke-linejoin:miter;stroke-miterlimit:4;stroke-dasharray:none;stroke-opacity:1" />
    <path
       style="fill:none;stroke:#73929c;stroke-width:1.05833;stroke-linecap:butt;stroke-linejoin:miter;stroke-miterlimit:4;stroke-dasharray:none;stroke-opacity:1"
       d="m 21.695834,10.583333 v 1.058334 l 1.058333,0.529166 89.958333,-10e-7 1.05833,-0.529166 v -1.058333 l -1.05833,-0.529167 -89.958333,10e-7 z"
       id="path834-3-8-2"
       sodipodi:nodetypes="ccccccccc" />
    <path
       style="fill:none;stroke:#73929c;stroke-width:1.05833;stroke-linecap:butt;stroke-linejoin:miter;stroke-miterlimit:4;stroke-dasharray:none;stroke-opacity:1"
       d="m 21.695834,17.991667 v 1.058334 l 1.058333,0.529166 89.958333,-1e-6 1.05833,-0.529166 v -1.058333 l -1.05833,-0.529167 -89.958333,1e-6 z"
       id="path834-3-7-9"
       sodipodi:nodetypes="ccccccccc" />
    <path
       id="path832-5-0"
       d="m 17.462492,135.46667 10e-7,-23.81251 8.466666,-8.46666 h 83.608331 l 8.46668,8.46666 v 23.81251"
       style="fill:#84a2ad;fill-opacity:1;stroke:#5a717b;stroke-width:1.05833;stroke-linecap:butt;stroke-linejoin:miter;stroke-miterlimit:4;stroke-dasharray:none;stroke-opacity:1"
       sodipodi:nodetypes="cccccc" />
    <path
       sodipodi:nodetypes="cccccc"
       id="path834-4-3"
       d="m 23.812487,110.06667 v -1.05834 l 1.058333,-0.52916 h 85.725 l 1.05835,0.52916 v 1.05834 l -1.05835,0.52916 h -85.725 z"
       style="fill:none;stroke:#73929c;stroke-width:1.05833;stroke-linecap:butt;stroke-linejoin:miter;stroke-miterlimit:4;stroke-dasharray:none;stroke-opacity:1" />
    <path
       style="fill:none;stroke:#73929c;stroke-width:1.05833;stroke-linecap:butt;stroke-linejoin:miter;stroke-miterlimit:4;stroke-dasharray:none;stroke-opacity:1"
       d="m 21.695821,132.29167 v -1.05834 l 1.058333,-0.52916 H 112.7125 l 1.05832,0.52916 v 1.05834 l -1.05832,0.52916 H 22.754154 Z"
       id="path834-3-3-0"
       sodipodi:nodetypes="ccccccccc" />
    <path
       sodipodi:nodetypes="ccccccccc"
       id="path834-3-8-2-3"
       d="M 21.695821,124.88334 V 123.825 l 1.058333,-0.52917 89.958346,1e-5 1.05832,0.52916 v 1.05834 l -1.05832,0.52916 H 22.754154 Z"
       style="fill:none;stroke:#73929c;stroke-width:1.05833;stroke-linecap:butt;stroke-linejoin:miter;stroke-miterlimit:4;stroke-dasharray:none;stroke-opacity:1" />
    <path
       sodipodi:nodetypes="ccccccccc"
       id="path834-3-7-9-3"
       d="m 21.695821,117.475 v -1.05833 l 1.058333,-0.52917 H 112.7125 l 1.05832,0.52917 v 1.05833 l -1.05832,0.52917 H 22.754154 Z"
       style="opacity:0.99;fill:none;stroke:#73929c;stroke-width:1.05833;stroke-linecap:butt;stroke-linejoin:miter;stroke-miterlimit:4;stroke-dasharray:none;stroke-opacity:1" />
  </g>
</svg>
