<?xml version="1.0" encoding="UTF-8" standalone="no"?>
<svg
   xmlns:dc="http://purl.org/dc/elements/1.1/"
   xmlns:cc="http://creativecommons.org/ns#"
   xmlns:rdf="http://www.w3.org/1999/02/22-rdf-syntax-ns#"
   xmlns:svg="http://www.w3.org/2000/svg"
   xmlns="http://www.w3.org/2000/svg"
   xmlns:sodipodi="http://sodipodi.sourceforge.net/DTD/sodipodi-0.dtd"
   xmlns:inkscape="http://www.inkscape.org/namespaces/inkscape"
   width="1024"
   height="832"
   viewBox="0 0 1024 832"
   version="1.1"
   id="svg8"
   inkscape:version="1.0.1 (1.0.1+r74)"
   sodipodi:docname="monitor_left.svg">
  <defs
     id="defs2">
    <inkscape:path-effect
       effect="powerclip"
       id="path-effect2722"
       is_visible="true"
       lpeversion="1"
       inverse="true"
       flatten="false"
       hide_clip="false"
       message="Use fill-rule evenodd on &lt;b&gt;fill and stroke&lt;/b&gt; dialog if no flatten result after convert clip to paths." />
  </defs>
  <sodipodi:namedview
     id="base"
     pagecolor="#ffffff"
     bordercolor="#666666"
     borderopacity="1.0"
     inkscape:pageopacity="0.0"
     inkscape:pageshadow="2"
     inkscape:zoom="0.98994949"
     inkscape:cx="378.84136"
     inkscape:cy="383.84184"
     inkscape:document-units="px"
     inkscape:current-layer="layer1"
     inkscape:document-rotation="0"
     showgrid="false"
     units="px" />
  <metadata
     id="metadata5">
    <rdf:RDF>
      <cc:Work
         rdf:about="">
        <dc:format>image/svg+xml</dc:format>
        <dc:type
           rdf:resource="http://purl.org/dc/dcmitype/StillImage" />
        <dc:title></dc:title>
      </cc:Work>
    </rdf:RDF>
  </metadata>
  <g
     inkscape:label="Layer 1"
     inkscape:groupmode="layer"
     id="layer1">
    <path
       style="display:inline;fill:#232429;fill-opacity:1;stroke:#000000;stroke-width:12;stroke-linecap:butt;stroke-linejoin:miter;stroke-miterlimit:4;stroke-dasharray:none;stroke-opacity:1"
       d="m 576.46049,623.47199 c 22.70286,62.37558 89.54994,111.10568 138.28395,111.10568 42.46627,0 48.20566,-4.71963 79.25458,-4.71963 27.51667,0 53.47722,19.38696 67.23747,29.48882 22.81691,16.75066 61.94704,36.96201 116.47632,36.96201 26.11279,0 54.15699,-7.35255 32.18189,14.62246 -10.11811,10.11815 -48.14204,12.86737 -63.22595,12.86737 -56.39355,0 -90.52458,-13.56414 -108.19814,-34.62666 -18.1722,-21.65678 -24.57004,-26.57048 -53.00705,-26.57048 -24.4596,0 -49.89476,6.2667 -74.35683,6.2667 -87.40036,0 -157.21659,-77.13228 -183.79533,-134.13056 z"
       id="path877"
       sodipodi:nodetypes="cssssssssscc"
       inkscape:label="arm" />
    <g
       id="g875"
       transform="matrix(0.74245649,-0.19893801,0.19894061,0.74244679,38.117213,257.08954)"
       inkscape:label="screen"
       style="stroke-width:1.00448">
      <path
         style="fill:#263839;stroke:#15161b;stroke-width:15.6119;stroke-linecap:round;stroke-linejoin:round;stroke-miterlimit:4;stroke-dasharray:none;paint-order:normal;stop-color:#000000"
         id="rect2687"
         width="1004"
         height="712"
         x="-21.999998"
         y="-71.714287"
         sodipodi:type="rect"
         d="M -6.3881474,-71.714287 H 966.38815 c 8.64897,0 15.61185,6.962964 15.61185,15.612027 v 680.77595 c 0,8.64906 -6.96288,15.61202 -15.61185,15.61202 H -6.3881474 c -8.6489656,0 -15.6118506,-6.96296 -15.6118506,-15.61202 V -56.10226 c 0,-8.649063 6.962885,-15.612027 15.6118506,-15.612027 z"
         rx="15.611851"
         ry="15.612027" />
      <path
         style="fill:#425152;stroke-width:14.0627;stroke-linecap:round;stroke-linejoin:round;paint-order:stroke fill markers;stop-color:#000000"
         id="rect2685"
         width="954"
         height="678"
         x="3.000001"
         y="-54.714287"
         ry="12.053846"
         sodipodi:type="rect"
         d="m 15.05369,-54.714287 h 929.89262 c 6.67775,0 12.05369,5.376016 12.05369,12.053847 v 653.89231 c 0,6.67783 -5.37594,12.05384 -12.05369,12.05384 H 15.05369 c -6.6777438,0 -12.053689,-5.37601 -12.053689,-12.05384 V -42.66044 c 0,-6.677831 5.3759452,-12.053847 12.053689,-12.053847 z"
         rx="12.053689" />
      <path
         style="fill:#607b76;stroke-width:14.0627;stroke-linecap:round;stroke-linejoin:round;paint-order:stroke fill markers;stop-color:#000000"
         id="rect2683"
         width="934"
         height="656"
         x="13.000001"
         y="-43.714287"
         ry="12.053846"
         sodipodi:type="rect"
         d="m 25.05369,-43.714287 h 909.89262 c 6.67775,0 12.05369,5.376016 12.05369,12.053847 v 631.89231 c 0,6.67783 -5.37594,12.05384 -12.05369,12.05384 H 25.05369 c -6.677744,0 -12.053689,-5.37601 -12.053689,-12.05384 V -31.66044 c 0,-6.677831 5.375945,-12.053847 12.053689,-12.053847 z"
         rx="12.053689" />
      <rect
         id="rect2673"
         width="911"
         height="627"
         x="24.5"
         y="-31.214285"
         ry="13.010023"
         style="display:inline;fill:#c3f9e7;fill-opacity:1;stroke:#424d4a;stroke-width:13.0099;stroke-linecap:round;stroke-linejoin:round;stroke-miterlimit:4;stroke-dasharray:none;paint-order:normal;stop-color:#000000"
         rx="13.009876" />
    </g>
  </g>
</svg>
