<?xml version="1.0" encoding="UTF-8" standalone="no"?>
<svg
   xmlns:dc="http://purl.org/dc/elements/1.1/"
   xmlns:cc="http://creativecommons.org/ns#"
   xmlns:rdf="http://www.w3.org/1999/02/22-rdf-syntax-ns#"
   xmlns:svg="http://www.w3.org/2000/svg"
   xmlns="http://www.w3.org/2000/svg"
   xmlns:sodipodi="http://sodipodi.sourceforge.net/DTD/sodipodi-0.dtd"
   xmlns:inkscape="http://www.inkscape.org/namespaces/inkscape"
   width="1024"
   height="732"
   viewBox="0 0 1024 732"
   version="1.1"
   id="svg8"
   inkscape:version="1.0.1 (1.0.1+r74)"
   sodipodi:docname="monitor.svg">
  <defs
     id="defs2">
    <inkscape:path-effect
       effect="powerclip"
       id="path-effect2722"
       is_visible="true"
       lpeversion="1"
       inverse="true"
       flatten="false"
       hide_clip="false"
       message="Use fill-rule evenodd on &lt;b&gt;fill and stroke&lt;/b&gt; dialog if no flatten result after convert clip to paths." />
    <clipPath
       clipPathUnits="userSpaceOnUse"
       id="clipPath2718">
      <rect
         id="rect2720"
         width="911"
         height="627"
         x="56.5"
         y="50.5"
         ry="12"
         style="display:none;fill:#c3f9e7;stroke-width:7;stroke-linecap:round;stroke-linejoin:round;stop-color:#000000" />
      <path
         id="lpe_path-effect2722"
         style="fill:#c3f9e7;stroke-width:7;stroke-linecap:round;stroke-linejoin:round;stop-color:#000000"
         class="powerclip"
         d="M -2,-2 H 1026 V 734 H -2 Z m 70.5,52.5 c -6.648,0 -12,5.352 -12,12 v 603 c 0,6.648 5.352,12 12,12 h 887 c 6.648,0 12,-5.352 12,-12 v -603 c 0,-6.648 -5.352,-12 -12,-12 z" />
    </clipPath>
  </defs>
  <sodipodi:namedview
     id="base"
     pagecolor="#ffffff"
     bordercolor="#666666"
     borderopacity="1.0"
     inkscape:pageopacity="0.0"
     inkscape:pageshadow="2"
     inkscape:zoom="1.4"
     inkscape:cx="531.09869"
     inkscape:cy="356.8446"
     inkscape:document-units="px"
     inkscape:current-layer="layer1"
     inkscape:document-rotation="0"
     showgrid="false"
     units="px"
     inkscape:snap-global="false" />
  <metadata
     id="metadata5">
    <rdf:RDF>
      <cc:Work
         rdf:about="">
        <dc:format>image/svg+xml</dc:format>
        <dc:type
           rdf:resource="http://purl.org/dc/dcmitype/StillImage" />
        <dc:title />
      </cc:Work>
    </rdf:RDF>
  </metadata>
  <g
     inkscape:label="Layer 1"
     inkscape:groupmode="layer"
     id="layer1">
    <g
       id="g2716"
       clip-path="url(#clipPath2718)"
       inkscape:path-effect="#path-effect2722">
      <path
         style="fill:#263839;stroke:#15161b;stroke-width:14;stroke-linecap:round;stroke-linejoin:round;paint-order:stroke fill markers;stop-color:#000000"
         id="rect2687"
         width="1004"
         height="712"
         x="10"
         y="10"
         ry="12"
         d="m 22,10 h 980 c 6.648,0 12,5.352 12,12 v 688 c 0,6.648 -5.352,12 -12,12 H 22 c -6.648,0 -12,-5.352 -12,-12 V 22 c 0,-6.648 5.352,-12 12,-12 z"
         sodipodi:type="rect" />
      <path
         style="fill:#425152;stroke-width:14;stroke-linecap:round;stroke-linejoin:round;paint-order:stroke fill markers;stop-color:#000000"
         id="rect2685"
         width="954"
         height="678"
         x="35"
         y="27"
         ry="12"
         d="m 47,27 h 930 c 6.648,0 12,5.352 12,12 v 654 c 0,6.648 -5.352,12 -12,12 H 47 c -6.648,0 -12,-5.352 -12,-12 V 39 c 0,-6.648 5.352,-12 12,-12 z"
         sodipodi:type="rect" />
      <path
         style="fill:#607b76;stroke-width:14;stroke-linecap:round;stroke-linejoin:round;paint-order:stroke fill markers;stop-color:#000000"
         id="rect2683"
         width="934"
         height="656"
         x="45"
         y="38"
         ry="12"
         d="m 57,38 h 910 c 6.648,0 12,5.352 12,12 v 632 c 0,6.648 -5.352,12 -12,12 H 57 c -6.648,0 -12,-5.352 -12,-12 V 50 c 0,-6.648 5.352,-12 12,-12 z"
         sodipodi:type="rect" />
    </g>
    <rect
       id="rect2673"
       width="911"
       height="627"
       x="56.5"
       y="50.5"
       ry="12"
       style="fill:none;stroke:#424d4a;stroke-width:7;stroke-linecap:round;stroke-linejoin:round;stop-color:#000000" />
  </g>
</svg>
