<?xml version="1.0" encoding="UTF-8" standalone="no"?>
<svg
   xmlns:dc="http://purl.org/dc/elements/1.1/"
   xmlns:cc="http://creativecommons.org/ns#"
   xmlns:rdf="http://www.w3.org/1999/02/22-rdf-syntax-ns#"
   xmlns:svg="http://www.w3.org/2000/svg"
   xmlns="http://www.w3.org/2000/svg"
   xmlns:sodipodi="http://sodipodi.sourceforge.net/DTD/sodipodi-0.dtd"
   xmlns:inkscape="http://www.inkscape.org/namespaces/inkscape"
   width="256"
   height="256"
   viewBox="0 0 67.733336 67.733336"
   version="1.1"
   id="svg8"
   inkscape:version="1.0.1 (1.0.1+r74)"
   sodipodi:docname="security_button.svg">
  <defs
     id="defs2" />
  <sodipodi:namedview
     id="base"
     pagecolor="#ffffff"
     bordercolor="#666666"
     borderopacity="1.0"
     inkscape:pageopacity="0.0"
     inkscape:pageshadow="2"
     inkscape:zoom="2"
     inkscape:cx="126.42963"
     inkscape:cy="126.996"
     inkscape:document-units="px"
     inkscape:current-layer="layer1"
     inkscape:document-rotation="0"
     showgrid="false"
     units="px"
     showguides="false"
     inkscape:snap-nodes="true"
     inkscape:snap-global="true"
     inkscape:snap-smooth-nodes="true" />
  <metadata
     id="metadata5">
    <rdf:RDF>
      <cc:Work
         rdf:about="">
        <dc:format>image/svg+xml</dc:format>
        <dc:type
           rdf:resource="http://purl.org/dc/dcmitype/StillImage" />
        <dc:title />
      </cc:Work>
    </rdf:RDF>
  </metadata>
  <g
     inkscape:label="Layer 1"
     inkscape:groupmode="layer"
     id="layer1"
     style="display:inline">
    <circle
       style="display:inline;fill:#000000;fill-opacity:1;stroke:none;stroke-width:1.32292;stroke-linecap:round;stroke-miterlimit:4;stroke-dasharray:none;stroke-opacity:1;stop-color:#000000"
       id="circle884"
       cx="42.333336"
       cy="14.816668"
       inkscape:label="circle882"
       r="13.758334" />
    <path
       style="display:inline;fill:none;stroke:#000000;stroke-width:6.61458;stroke-linecap:butt;stroke-linejoin:round;stroke-miterlimit:4;stroke-dasharray:none;stroke-opacity:1"
       d="m 13.575524,35.893135 c 7.458111,-7.034054 23.05619,-19.825298 28.258801,-23.768529 1.560573,-1.182809 3.983652,-1.243695 5.93437,-1.073029 3.44305,0.301227 7.969672,3.535231 7.969672,8.036975 0,1.823205 -0.188649,2.163268 -2.059595,3.733178 -3.817631,3.203373 -19.434784,14.889939 -24.249794,18.560768 -1.317693,-1.929209 -2.790307,-2.766533 -8.195624,-2.532077 -1.167449,0.05064 -4.975597,0.600867 -7.109084,-0.378124 -1.401735,-0.643213 -2.093611,-1.122135 -0.548746,-2.579162 z"
       id="path1092"
       sodipodi:nodetypes="ssssscsss" />
    <path
       style="fill:none;stroke:#000000;stroke-width:4.7625;stroke-linecap:round;stroke-linejoin:miter;stroke-miterlimit:4;stroke-dasharray:none;stroke-opacity:1"
       d="m 33.366134,33.644005 4.113337,8.238014"
       id="path1096"
       sodipodi:nodetypes="cc" />
    <rect
       style="display:inline;fill:#ffffff;fill-opacity:1;stroke:#000000;stroke-width:1.05833;stroke-linecap:round;stroke-miterlimit:4;stroke-dasharray:none;stroke-opacity:1;stop-color:#000000"
       id="rect848"
       width="64.293755"
       height="37.041668"
       x="1.9843735"
       y="4.1010437"
       inkscape:label="rect844"
       ry="2.6458335" />
    <path
       style="fill:none;stroke:#ffffff;stroke-width:2.64583;stroke-linecap:round;stroke-linejoin:miter;stroke-miterlimit:4;stroke-dasharray:none;stroke-opacity:1"
       d="m 33.366134,33.644005 4.113337,8.238014"
       id="path1094"
       sodipodi:nodetypes="cc" />
    <path
       style="display:inline;fill:none;stroke:#ffffff;stroke-width:4.49792;stroke-linecap:butt;stroke-linejoin:round;stroke-miterlimit:4;stroke-dasharray:none;stroke-opacity:1"
       d="m 13.575524,35.893135 c 7.458111,-7.034054 23.05619,-19.825298 28.258801,-23.768529 1.560573,-1.182809 3.983652,-1.243695 5.93437,-1.073029 3.44305,0.301227 7.969672,3.535231 7.969672,8.036975 0,1.823205 -0.188649,2.163268 -2.059595,3.733178 -3.817631,3.203373 -19.434784,14.889939 -24.249794,18.560768 -1.317693,-1.929209 -2.790307,-2.766533 -8.195624,-2.532077 -1.167449,0.05064 -5.023543,0.525628 -7.109084,-0.378124 -1.41511,-0.613226 -2.093611,-1.122135 -0.548746,-2.579162 z"
       id="path1090"
       sodipodi:nodetypes="ssssscsss" />
    <circle
       style="display:inline;fill:#ffffff;fill-opacity:1;stroke:none;stroke-width:1.32292;stroke-linecap:round;stroke-miterlimit:4;stroke-dasharray:none;stroke-opacity:1;stop-color:#000000"
       id="circle882"
       cx="42.333336"
       cy="14.816668"
       inkscape:label="circle882"
       r="12.700001" />
    <rect
       style="display:inline;fill:#556666;fill-opacity:1;stroke:#323243;stroke-width:1.05833;stroke-linecap:round;stroke-miterlimit:4;stroke-dasharray:none;stroke-opacity:1;stop-color:#000000"
       id="rect844"
       width="59.531254"
       height="32.279167"
       x="4.3656254"
       y="6.4822917"
       inkscape:label="rect844" />
    <rect
       style="display:inline;fill:#556666;fill-opacity:1;stroke:none;stroke-width:0.264583;stroke-linecap:round;stroke-miterlimit:4;stroke-dasharray:none;stroke-opacity:1;stop-color:#000000"
       id="rect846"
       width="56.356251"
       height="29.104168"
       x="5.953125"
       y="8.0697908"
       inkscape:label="rect844" />
    <rect
       style="fill:#eeeeee;fill-opacity:1;stroke:none;stroke-width:1.32292;stroke-linecap:round;stroke-miterlimit:4;stroke-dasharray:none;stroke-opacity:1;stop-color:#000000"
       id="rect864"
       width="27.781252"
       height="8.4666672"
       x="5.953125"
       y="26.716719" />
    <rect
       style="fill:#eeeeee;fill-opacity:1;stroke:none;stroke-width:1.32292;stroke-linecap:round;stroke-miterlimit:4;stroke-dasharray:none;stroke-opacity:1;stop-color:#000000"
       id="rect866"
       width="7.1437502"
       height="14.2875"
       x="15.610417"
       y="8.0697918" />
    <rect
       style="fill:#eeeeee;fill-opacity:1;stroke:none;stroke-width:1.32292;stroke-linecap:round;stroke-miterlimit:4;stroke-dasharray:none;stroke-opacity:1;stop-color:#000000"
       id="rect868"
       width="11.641667"
       height="5.291667"
       x="22.225"
       y="13.493751" />
    <rect
       style="display:inline;fill:#eeeeee;fill-opacity:1;stroke:none;stroke-width:1.31257;stroke-linecap:round;stroke-miterlimit:4;stroke-dasharray:none;stroke-opacity:1;stop-color:#000000"
       id="rect874"
       width="28.442709"
       height="6.8791671"
       x="33.866669"
       y="25.135418" />
    <rect
       style="display:inline;fill:#eeeeee;fill-opacity:1;stroke:none;stroke-width:2.16368;stroke-linecap:round;stroke-miterlimit:4;stroke-dasharray:none;stroke-opacity:1;stop-color:#000000"
       id="rect876"
       width="7.1437502"
       height="14.948959"
       x="45.772919"
       y="22.225" />
    <path
       id="path861"
       style="fill:none;stroke:#aabbbb;stroke-width:1.32292;stroke-linecap:butt;stroke-linejoin:miter;stroke-miterlimit:4;stroke-dasharray:none;stroke-opacity:1"
       d="M 33.866668,8.1020192 V 37.25027 M 6.0819626,22.225001 H 62.306448"
       sodipodi:nodetypes="cccc" />
    <rect
       style="fill:#eeeeee;fill-opacity:1;stroke:none;stroke-width:1.32292;stroke-linecap:round;stroke-miterlimit:4;stroke-dasharray:none;stroke-opacity:1;stop-color:#000000"
       id="rect872"
       width="7.9375005"
       height="5.8208337"
       x="54.371876"
       y="11.112501" />
    <rect
       style="fill:#eeeeee;fill-opacity:1;stroke:none;stroke-width:1.32292;stroke-linecap:round;stroke-miterlimit:4;stroke-dasharray:none;stroke-opacity:1;stop-color:#000000"
       id="rect870"
       width="7.6729169"
       height="8.8635416"
       x="47.625"
       y="8.0697918" />
    <rect
       style="display:inline;fill:none;fill-opacity:1;stroke:#323243;stroke-width:0.264583;stroke-linecap:round;stroke-miterlimit:4;stroke-dasharray:none;stroke-opacity:1;stop-color:#000000"
       id="rect857"
       width="56.356251"
       height="29.104168"
       x="5.953125"
       y="8.0697908"
       inkscape:label="rect844" />
    <circle
       style="display:inline;fill:#aabbbb;fill-opacity:1;stroke:#323242;stroke-width:1.32292;stroke-linecap:round;stroke-miterlimit:4;stroke-dasharray:none;stroke-opacity:1;stop-color:#000000"
       id="path878"
       cx="42.333336"
       cy="14.816668"
       r="10.583334" />
    <circle
       style="display:inline;fill:#556666;fill-opacity:1;stroke:none;stroke-width:1.32292;stroke-linecap:round;stroke-miterlimit:4;stroke-dasharray:none;stroke-opacity:1;stop-color:#000000"
       id="circle880"
       cx="42.333336"
       cy="14.816668"
       r="6.6145835" />
    <path
       style="display:inline;fill:#aabbbb;fill-opacity:1;stroke:none;stroke-width:1.85208;stroke-linecap:butt;stroke-linejoin:round;stroke-miterlimit:4;stroke-dasharray:none;stroke-opacity:1"
       d="m 13.266886,36.115717 c 7.45811,-7.034054 23.364828,-20.04788 28.567439,-23.991111 1.560573,-1.182809 3.983652,-1.243695 5.93437,-1.073029 3.44305,0.301227 7.969672,3.535231 7.969672,8.036975 0,1.823205 -0.188649,2.163268 -2.059595,3.733178 -3.817631,3.203373 -19.434784,14.889939 -24.249794,18.560768 -1.317693,-1.929209 -2.790308,-2.766546 -8.195624,-2.532077 -1.976484,0.08573 -11.7405949,0.824832 -7.966468,-2.734704 z"
       id="path887"
       sodipodi:nodetypes="ssssscss" />
    <path
       id="path1137"
       style="fill:none;stroke:#ffffff;stroke-width:0.264583px;stroke-linecap:round;stroke-linejoin:miter;stroke-opacity:1"
       d="m 21.004977,37.54301 c 4.175278,-4.175495 9.559544,-8.681284 14.167449,-12.438961 m -20.8622,12.028821 c 1.961099,0.731613 4.125922,0.588476 6.694751,0.41014"
       sodipodi:nodetypes="cccc" />
    <path
       style="display:inline;fill:#566666;fill-opacity:1;stroke:none;stroke-width:0.264583px;stroke-linecap:butt;stroke-linejoin:miter;stroke-opacity:1"
       d="M 20.440145,38.673281 C 28.214257,30.763249 39.717974,21.933948 47.0113,16.172377 c -5.186446,4.809549 -10.914561,9.981734 -16.682481,15.606387 -2.78758,2.718341 -0.349749,2.018315 -8.118581,6.941993 z"
       id="path893"
       sodipodi:nodetypes="ccscc" />
    <path
       style="display:inline;fill:none;stroke:#333344;stroke-width:1.85208;stroke-linecap:butt;stroke-linejoin:round;stroke-miterlimit:4;stroke-dasharray:none;stroke-opacity:1"
       d="m 13.575524,35.893135 c 7.458111,-7.034054 23.05619,-19.825298 28.258801,-23.768529 1.560573,-1.182809 3.983652,-1.243695 5.93437,-1.073029 3.44305,0.301227 7.969672,3.535231 7.969672,8.036975 0,1.823205 -0.188649,2.163268 -2.059595,3.733178 -3.817631,3.203373 -19.434784,14.889939 -24.249794,18.560768 -1.317693,-1.929209 -2.790307,-2.766533 -8.195624,-2.532077 -1.167449,0.05064 -5.042026,0.404055 -7.109084,-0.378124 -1.442448,-0.545825 -2.093611,-1.122135 -0.548746,-2.579162 z"
       id="path891"
       sodipodi:nodetypes="ssssscsss" />
    <path
       style="display:inline;fill:#00cc66;fill-opacity:1;stroke:#104231;stroke-width:0.79375;stroke-linecap:butt;stroke-linejoin:miter;stroke-miterlimit:40;stroke-dasharray:none;stroke-opacity:1"
       d="m 24.597049,30.425381 c 2.681792,-4.26513 -1.39183,-11.398184 -3.575539,-17.237541 3.170818,5.289333 5.155493,10.072513 12.621841,9.491491 -2.570804,5.155457 0.677372,12.168405 2.107113,15.724229 -1.99248,-3.311145 -4.668765,-9.252383 -11.153415,-7.978179 z"
       id="path897"
       sodipodi:nodetypes="ccccc" />
    <path
       style="fill:#ffffff;fill-opacity:1;stroke:none;stroke-width:0.264583;stroke-linecap:butt;stroke-linejoin:miter;stroke-miterlimit:40;stroke-dasharray:none;stroke-opacity:1"
       d="m 28.320696,27.063574 c 0.553642,-1.187288 0.04799,-2.695732 -0.711366,-4.086357 1.01589,1.138532 2.074635,2.083047 3.390794,1.862163 -0.466886,1.123434 -0.210061,2.367339 0.566073,3.843883 -0.994803,-1.274923 -1.974977,-1.960125 -3.245501,-1.619689 z"
       id="path1080"
       sodipodi:nodetypes="ccccc" />
    <path
       id="path1133"
       style="display:inline;fill:none;stroke:#000000;stroke-width:9.26042;stroke-linecap:round;stroke-linejoin:round;stroke-miterlimit:4;stroke-dasharray:none;stroke-opacity:1"
       d="m 60.437468,53.248106 -0.01523,8.821401 M 57.335166,48.989366 c 0.594089,1.306492 2.085866,3.748615 2.768452,4.786655 0.550852,-1.029359 2.247878,-3.770878 2.803763,-4.858149 m -10.306231,-0.07617 -0.0088,13.256167 m -2.484504,-13.347074 4.455367,0.0349 m -11.962816,13.216701 4.770393,-0.02569 m -2.542943,-12.9106 0.02103,12.876215 m -2.502801,-13.128564 4.671248,0.01431 M 34.776292,61.857269 34.95093,49.004422 c 1.047433,-0.296452 4.770978,-0.563932 4.770978,2.80191 0,2.931399 -3.117534,4.076999 -4.246292,4.4803 0.500336,0.673311 3.8547,4.606929 4.515512,5.410219 M 26.578741,49.055174 c -0.0099,1.169151 -0.03784,4.117173 -0.08255,7.604246 -0.03442,2.684341 0.756457,5.132744 2.89699,5.132744 2.000439,0 2.735172,-2.357921 2.707941,-4.972489 -0.03885,-3.730387 0.0064,-6.890906 0.0079,-7.99976 m -8.690218,1.11372 c -0.318579,-0.93853 -1.386602,-1.116736 -1.996549,-0.764583 -0.64052,0.369804 -0.763591,0.91664 -0.950298,1.544563 -0.40031,1.346299 -0.587552,3.304899 -0.587552,4.990528 0,2.667704 0.15514,4.112636 0.709857,5.038307 0.476992,0.795971 1.204829,1.059599 1.758686,1.057314 0.710946,-0.0029 1.331128,-0.464834 1.602655,-1.033889 m -10.35936,-5.967471 3.350871,0.05456 m 0.466841,-6.011184 -4.140027,-0.131618 c -0.07091,4.426454 -0.06168,8.821562 -0.04087,13.212144 l 4.102682,0.01656 M 9.994243,50.407614 C 9.6623741,49.266903 8.5225115,49.035995 7.7661462,49.035995 c -1.0698982,0 -1.9765065,0.857448 -2.3205733,1.663833 -0.3994582,0.936206 -0.4262058,2.224625 -0.2105064,2.817254 0.4798962,1.318504 1.6320278,1.505982 2.744579,1.804089 1.4869333,0.398423 2.3249135,0.923564 2.4540195,2.399248 0.08681,0.992186 0.147618,2.732095 -0.877277,3.504154 -0.8074411,0.60825 -1.8925049,0.639124 -2.8319321,0.410843 C 5.4297375,61.320799 5.0435643,60.485964 4.9254708,60.045233"
       sodipodi:nodetypes="cccccccccccccccccscccsssccsssssccccccccsssssssc" />
    <path
       id="path1126"
       style="display:inline;fill:none;stroke:#ffffff;stroke-width:6.87917;stroke-linecap:round;stroke-linejoin:round;stroke-miterlimit:4;stroke-dasharray:none;stroke-opacity:1"
       d="m 60.437468,53.248106 -0.01523,8.821401 M 57.335166,48.989366 c 0.594089,1.306492 2.085866,3.748615 2.768452,4.786655 0.550852,-1.029359 2.247878,-3.770878 2.803763,-4.858149 m -10.306231,-0.07617 -0.0088,13.256167 m -2.484504,-13.347074 4.455367,0.0349 m -11.962816,13.216701 4.770393,-0.02569 m -2.542943,-12.9106 0.02103,12.876215 m -2.502801,-13.128564 4.671248,0.01431 M 34.776292,61.857269 34.95093,49.004422 c 1.047433,-0.296452 4.770978,-0.563932 4.770978,2.80191 0,2.931399 -3.117534,4.076999 -4.246292,4.4803 0.500336,0.673311 3.8547,4.606929 4.515512,5.410219 M 26.578741,49.055174 c -0.0099,1.169151 -0.03784,4.117173 -0.08255,7.604246 -0.03442,2.684341 0.756457,5.132744 2.89699,5.132744 2.000439,0 2.735172,-2.357921 2.707941,-4.972489 -0.03885,-3.730387 0.0064,-6.890906 0.0079,-7.99976 m -8.690218,1.11372 c -0.318579,-0.93853 -1.386602,-1.116736 -1.996549,-0.764583 -0.64052,0.369804 -0.763591,0.91664 -0.950298,1.544563 -0.40031,1.346299 -0.587552,3.304899 -0.587552,4.990528 0,2.667704 0.15514,4.112636 0.709857,5.038307 0.476992,0.795971 1.204829,1.059599 1.758686,1.057314 0.710946,-0.0029 1.331128,-0.464834 1.602655,-1.033889 m -10.35936,-5.967471 3.350871,0.05456 m 0.466841,-6.011184 -4.140027,-0.131618 c -0.07091,4.426454 -0.06168,8.821562 -0.04087,13.212144 l 4.102682,0.01656 M 9.994243,50.407614 C 9.6623741,49.266903 8.5225115,49.035995 7.7661462,49.035995 c -1.0698982,0 -1.9765065,0.857448 -2.3205733,1.663833 -0.3994582,0.936206 -0.4262058,2.224625 -0.2105064,2.817254 0.4798962,1.318504 1.6320278,1.505982 2.744579,1.804089 1.4869333,0.398423 2.3249135,0.923564 2.4540195,2.399248 0.08681,0.992186 0.147618,2.732095 -0.877277,3.504154 -0.8074411,0.60825 -1.8925049,0.639124 -2.8319321,0.410843 C 5.4297375,61.320799 5.0435643,60.485964 4.9254708,60.045233"
       sodipodi:nodetypes="cccccccccccccccccscccsssccsssssccccccccsssssssc" />
    <path
       id="path1129"
       style="display:inline;fill:none;stroke:#00cc66;stroke-width:4.49792;stroke-linecap:round;stroke-linejoin:round;stroke-miterlimit:4;stroke-dasharray:none;stroke-opacity:1"
       d="m 60.437468,53.248106 -0.01523,8.821401 M 57.335166,48.989366 c 0.594089,1.306492 2.085866,3.748615 2.768452,4.786655 0.550852,-1.029359 2.247878,-3.770878 2.803763,-4.858149 m -10.306231,-0.07617 -0.0088,13.256167 m -2.484504,-13.347074 4.455367,0.0349 m -11.962816,13.216701 4.770393,-0.02569 m -2.542943,-12.9106 0.02103,12.876215 m -2.502801,-13.128564 4.671248,0.01431 M 34.776292,61.857269 34.95093,49.004422 c 1.047433,-0.296452 4.770978,-0.563932 4.770978,2.80191 0,2.931399 -3.117534,4.076999 -4.246292,4.4803 0.500336,0.673311 3.8547,4.606929 4.515512,5.410219 M 26.578741,49.055174 c -0.0099,1.169151 -0.03784,4.117173 -0.08255,7.604246 -0.03442,2.684341 0.756457,5.132744 2.89699,5.132744 2.000439,0 2.735172,-2.357921 2.707941,-4.972489 -0.03885,-3.730387 0.0064,-6.890906 0.0079,-7.99976 m -8.690218,1.11372 c -0.318579,-0.93853 -1.386602,-1.116736 -1.996549,-0.764583 -0.64052,0.369804 -0.763591,0.91664 -0.950298,1.544563 -0.40031,1.346299 -0.587552,3.304899 -0.587552,4.990528 0,2.667704 0.15514,4.112636 0.709857,5.038307 0.476992,0.795971 1.204829,1.059599 1.758686,1.057314 0.710946,-0.0029 1.331128,-0.464834 1.602655,-1.033889 m -10.35936,-5.967471 3.350871,0.05456 m 0.466841,-6.011184 -4.140027,-0.131618 c -0.07091,4.426454 -0.06168,8.821562 -0.04087,13.212144 l 4.102682,0.01656 M 9.994243,50.407614 C 9.6623741,49.266903 8.5225115,49.035995 7.7661462,49.035995 c -1.0698982,0 -1.9765065,0.857448 -2.3205733,1.663833 -0.3994582,0.936206 -0.4262058,2.224625 -0.2105064,2.817254 0.4798962,1.318504 1.6320278,1.505982 2.744579,1.804089 1.4869333,0.398423 2.3249135,0.923564 2.4540195,2.399248 0.08681,0.992186 0.147618,2.732095 -0.877277,3.504154 -0.8074411,0.60825 -1.8925049,0.639124 -2.8319321,0.410843 C 5.4297375,61.320799 5.0435643,60.485964 4.9254708,60.045233"
       sodipodi:nodetypes="cccccccccccccccccscccsssccsssssccccccccsssssssc" />
    <path
       id="path1131"
       style="display:inline;fill:none;stroke:#000000;stroke-width:2.11667;stroke-linecap:round;stroke-linejoin:round;stroke-miterlimit:4;stroke-dasharray:none;stroke-opacity:1"
       d="m 60.437468,53.248106 -0.01523,8.821401 M 57.335166,48.989366 c 0.594089,1.306492 2.085866,3.748615 2.768452,4.786655 0.550852,-1.029359 2.247878,-3.770878 2.803763,-4.858149 m -10.306231,-0.07617 -0.0088,13.256167 m -2.484504,-13.347074 4.455367,0.0349 m -11.962816,13.216701 4.770393,-0.02569 m -2.542943,-12.9106 0.02103,12.876215 m -2.502801,-13.128564 4.671248,0.01431 M 34.776292,61.857269 34.95093,49.004422 c 1.047433,-0.296452 4.770978,-0.563932 4.770978,2.80191 0,2.931399 -3.117534,4.076999 -4.246292,4.4803 0.500336,0.673311 3.8547,4.606929 4.515512,5.410219 M 26.578741,49.055174 c -0.0099,1.169151 -0.03784,4.117173 -0.08255,7.604246 -0.03442,2.684341 0.756457,5.132744 2.89699,5.132744 2.000439,0 2.735172,-2.357921 2.707941,-4.972489 -0.03885,-3.730387 0.0064,-6.890906 0.0079,-7.99976 m -8.690218,1.11372 c -0.318579,-0.93853 -1.386602,-1.116736 -1.996549,-0.764583 -0.64052,0.369804 -0.763591,0.91664 -0.950298,1.544563 -0.40031,1.346299 -0.587552,3.304899 -0.587552,4.990528 0,2.667704 0.15514,4.112636 0.709857,5.038307 0.476992,0.795971 1.204829,1.059599 1.758686,1.057314 0.710946,-0.0029 1.331128,-0.464834 1.602655,-1.033889 m -10.35936,-5.967471 3.350871,0.05456 m 0.466841,-6.011184 -4.140027,-0.131618 c -0.07091,4.426454 -0.06168,8.821562 -0.04087,13.212144 l 4.102682,0.01656 M 9.994243,50.407614 C 9.6623741,49.266903 8.5225115,49.035995 7.7661462,49.035995 c -1.0698982,0 -1.9765065,0.857448 -2.3205733,1.663833 -0.3994582,0.936206 -0.4262058,2.224625 -0.2105064,2.817254 0.4798962,1.318504 1.6320278,1.505982 2.744579,1.804089 1.4869333,0.398423 2.3249135,0.923564 2.4540195,2.399248 0.08681,0.992186 0.147618,2.732095 -0.877277,3.504154 -0.8074411,0.60825 -1.8925049,0.639124 -2.8319321,0.410843 C 5.4297375,61.320799 5.0435643,60.485964 4.9254708,60.045233"
       sodipodi:nodetypes="cccccccccccccccccscccsssccsssssccccccccsssssssc" />
  </g>
</svg>
